<?xml version="1.0" encoding="UTF-8"?>
<svg xmlns="http://www.w3.org/2000/svg" xmlns:xlink="http://www.w3.org/1999/xlink" viewBox="0 0 108 108">
  <defs>
    <style>
      .cls-1 {
        opacity: .25;
      }

      .cls-1, .cls-2 {
        mix-blend-mode: multiply;
      }

      .cls-1, .cls-3 {
        fill: #971b9b;
      }

      .cls-4 {
        fill: #f9084d;
      }

      .cls-5 {
        fill: #af23af;
      }

      .cls-6 {
        fill: #fff;
      }

      .cls-7 {
        fill: url(#Unbenannter_Verlauf_33);
      }

      .cls-8 {
        fill: none;
        stroke: #fff;
        stroke-miterlimit: 10;
      }

      .cls-9 {
        isolation: isolate;
      }

      .cls-10 {
        fill: #dcd6fc;
      }

      .cls-11 {
        fill: #5a4af4;
      }

      .cls-12 {
        fill: url(#Unbenannter_Verlauf_39-4);
      }

      .cls-13 {
        fill: url(#Unbenannter_Verlauf_39);
      }

      .cls-2 {
        fill: #ebeaef;
      }

      .cls-14 {
        fill: #3632ce;
      }

      .cls-15 {
        fill: #5036e2;
      }

      .cls-16 {
        fill: #d334ce;
      }

      .cls-17 {
        fill: url(#Unbenannter_Verlauf_35);
      }

      .cls-18 {
        fill: #fcbc06;
      }

      .cls-19 {
        fill: url(#Unbenannter_Verlauf_39-2);
      }

      .cls-20 {
        fill: #48397e;
      }

      .cls-21 {
        fill: url(#Unbenannter_Verlauf_35-2);
      }

      .cls-22 {
        fill: url(#Unbenannter_Verlauf_39-3);
      }

      .cls-23 {
        fill: url(#Unbenannter_Verlauf_31);
      }
    </style>
    <linearGradient id="Unbenannter_Verlauf_39" data-name="Unbenannter Verlauf 39" x1="64.35" y1="41.85" x2="75.46" y2="41.85" gradientUnits="userSpaceOnUse">
      <stop offset="0" stop-color="#f4b741"/>
      <stop offset=".84" stop-color="#ffc53f"/>
    </linearGradient>
    <linearGradient id="Unbenannter_Verlauf_39-2" data-name="Unbenannter Verlauf 39" x1="80.17" y1="47.63" x2="91.27" y2="47.63" xlink:href="#Unbenannter_Verlauf_39"/>
    <linearGradient id="Unbenannter_Verlauf_39-3" data-name="Unbenannter Verlauf 39" x1="48.54" y1="47.63" x2="59.65" y2="47.63" xlink:href="#Unbenannter_Verlauf_39"/>
    <linearGradient id="Unbenannter_Verlauf_39-4" data-name="Unbenannter Verlauf 39" y1="59.41" y2="59.41" xlink:href="#Unbenannter_Verlauf_39"/>
    <linearGradient id="Unbenannter_Verlauf_35" data-name="Unbenannter Verlauf 35" x1="15.18" y1="65.41" x2="29.12" y2="65.41" gradientUnits="userSpaceOnUse">
      <stop offset=".62" stop-color="#b66e42"/>
      <stop offset="1" stop-color="#e39e44"/>
    </linearGradient>
    <linearGradient id="Unbenannter_Verlauf_33" data-name="Unbenannter Verlauf 33" x1="11.97" y1="65.41" x2="16.79" y2="65.41" gradientUnits="userSpaceOnUse">
      <stop offset=".62" stop-color="#cd8d42"/>
      <stop offset="1" stop-color="#e39e44"/>
    </linearGradient>
    <linearGradient id="Unbenannter_Verlauf_31" data-name="Unbenannter Verlauf 31" x1="18.97" y1="65.41" x2="40.94" y2="65.41" gradientUnits="userSpaceOnUse">
      <stop offset="0" stop-color="#e39e44"/>
      <stop offset=".38" stop-color="#cd8d42"/>
    </linearGradient>
    <linearGradient id="Unbenannter_Verlauf_35-2" data-name="Unbenannter Verlauf 35" x1="16.38" y1="76.38" x2="16.38" y2="79.01" xlink:href="#Unbenannter_Verlauf_35"/>
  </defs>
  <g class="cls-9">
    <g id="Layer_1" data-name="Layer 1">
      <g>
        <g>
          <path class="cls-6" d="m50.14,29.53h39.68c2,0,3.62,1.62,3.62,3.62v32.57h-46.92v-32.57c0-2,1.62-3.62,3.62-3.62Z"/>
          <path class="cls-20" d="m91.98,29.53h-43.99c-.81,0-1.46.65-1.46,1.46v2.94h46.92v-2.94c0-.81-.65-1.46-1.46-1.46Z"/>
          <g>
            <circle class="cls-6" cx="48.97" cy="31.73" r=".43"/>
            <circle class="cls-18" cx="51.27" cy="31.73" r=".43"/>
            <path class="cls-4" d="m53.99,31.73c0,.24-.19.43-.43.43s-.43-.19-.43-.43.19-.43.43-.43.43.19.43.43Z"/>
          </g>
          <rect class="cls-10" x="48.54" y="36.72" width="42.73" height="1.55"/>
          <g>
            <rect class="cls-13" x="64.35" y="40.22" width="11.11" height="3.26"/>
            <rect class="cls-16" x="80.17" y="40.22" width="11.11" height="3.26"/>
            <rect class="cls-16" x="48.54" y="40.22" width="11.11" height="3.26"/>
          </g>
          <g>
            <rect class="cls-10" x="64.35" y="45.99" width="11.11" height="3.26"/>
            <rect class="cls-19" x="80.17" y="45.99" width="11.11" height="3.26"/>
            <rect class="cls-22" x="48.54" y="45.99" width="11.11" height="3.26"/>
          </g>
          <g>
            <rect class="cls-16" x="64.35" y="52.05" width="11.11" height="3.26"/>
            <rect class="cls-10" x="80.17" y="52.05" width="11.11" height="3.26"/>
            <rect class="cls-10" x="48.54" y="52.05" width="11.11" height="3.26"/>
          </g>
          <g>
            <rect class="cls-12" x="64.35" y="57.78" width="11.11" height="3.26"/>
            <rect class="cls-16" x="80.17" y="57.78" width="11.11" height="3.26"/>
            <rect class="cls-16" x="48.54" y="57.78" width="11.11" height="3.26"/>
          </g>
        </g>
        <g>
          <path class="cls-17" d="m18.97,52.36h-3.79s.97,24.38.97,24.38l4.64,1.72-1.82-26.1Zm4.05,1.85c-.21,0-.39-.17-.39-.39s.17-.39.39-.39.39.17.39.39-.17.39-.39.39Zm5.72,0c-.21,0-.39-.17-.39-.39s.17-.39.39-.39.39.17.39.39-.17.39-.39.39Z"/>
          <path class="cls-8" d="m22.29,53.83v-8.44c0-1.58,1.28-2.86,2.86-2.86h0c1.58,0,2.86,1.28,2.86,2.86v8.44"/>
          <polygon class="cls-7" points="15.15 52.36 11.97 78.47 16.15 76.75 16.79 53.18 15.15 52.36"/>
          <text/>
          <path class="cls-23" d="m37.94,52.36h-18.97l1.82,26.1h20.15l-3-26.1Zm-11.13,1.85c-.21,0-.39-.17-.39-.39s.17-.39.39-.39.39.17.39.39-.17.39-.39.39Zm5.72,0c-.21,0-.39-.17-.39-.39s.17-.39.39-.39.39.17.39.39-.17.39-.39.39Z"/>
          <path class="cls-8" d="m26.8,53.83v-8.44c0-1.58,1.28-2.86,2.86-2.86h0c1.58,0,2.86,1.28,2.86,2.86v8.44"/>
          <polygon class="cls-21" points="11.97 78.47 20.79 78.47 16.15 76.75 11.97 78.47"/>
        </g>
        <g>
          <g>
            <path class="cls-14" d="m40.01,50.3c-2.82.23-.87,3.96,2.42,6.39.14.1.28.2.42.3.44.3.9.57,1.38.81,0,0,1.31-7.95-4.22-7.49Zm3.99,7.26c-.3-.15-.58-.31-.86-.5-2.43-1.61-3.87-4.36-1.97-4.98.77-.25,1.34-.15,1.77.17.02.01.04.03.06.04h0c1.49,1.24,1.01,5.26,1.01,5.26Z"/>
            <path class="cls-14" d="m48.74,51.15c-5.1-.52-4.01,6.6-4.01,6.6.45-.21.88-.45,1.29-.72.13-.09.27-.18.4-.27,3.09-2.18,4.93-5.34,2.33-5.61Zm-3,5.94c-.26.16-.52.31-.8.44,0,0-.37-3.72,1.03-4.83h0s.03-.03.05-.04c.4-.29.93-.37,1.63-.13,1.74.6.36,3.12-1.92,4.56Z"/>
          </g>
          <rect class="cls-16" x="34.2" y="61.04" width="30.11" height="17.42"/>
          <rect class="cls-15" x="43.3" y="61.04" width="1.82" height="17.42"/>
          <rect class="cls-16" x="32.93" y="57.1" width="31.38" height="3.94"/>
          <rect class="cls-3" x="64.31" y="61.04" width="7.31" height="17.42" transform="translate(135.93 139.51) rotate(180)"/>
          <rect class="cls-5" x="64.31" y="57.1" width="8.58" height="3.94" transform="translate(137.2 118.15) rotate(180)"/>
          <polygon class="cls-2" points="64.31 63.77 34.2 62.39 34.2 61.04 64.31 61.04 64.31 63.77"/>
          <rect class="cls-11" x="42.83" y="57.1" width="2.77" height="3.94"/>
          <rect class="cls-15" x="67.69" y="61.04" width="1.82" height="17.42"/>
          <rect class="cls-11" x="67.22" y="57.1" width="2.77" height="3.94"/>
          <polygon class="cls-1" points="64.31 63.77 71.62 62.87 71.62 61.04 64.31 61.04 64.31 63.77"/>
        </g>
      </g>
    </g>
  </g>
</svg>