<svg xmlns="http://www.w3.org/2000/svg" width="3000" height="3000" fill="none" viewBox="0 0 3000 3000" id="mobile-payment"><g clip-path="url(#clip0_101_36102)"><path fill="#F1F1F1" d="M936.66 277.676C936.66 219.557 983.775 172.442 1041.89 172.442H2086.72C2144.84 172.442 2191.95 219.557 2191.95 277.676V2374.84C2191.95 2432.96 2144.84 2480.08 2086.72 2480.08H1041.89C983.775 2480.08 936.66 2432.96 936.66 2374.84V277.676zM929.144 1818.6C929.144 1953.52 819.77 2062.9 684.85 2062.9 549.931 2062.9 440.557 1953.52 440.557 1818.6 440.557 1683.68 549.931 1574.31 684.85 1574.31 819.77 1574.31 929.144 1683.68 929.144 1818.6z"></path><path fill="#F1F1F1" d="M463.107 521.97C463.107 501.213 479.934 484.387 500.691 484.387H1049.41C1070.17 484.387 1086.99 501.213 1086.99 521.97V1251.09C1086.99 1271.85 1070.17 1288.68 1049.41 1288.68H500.691C479.934 1288.68 463.107 1271.85 463.107 1251.09V521.97Z"></path><path fill="#F1F1F1" d="M560.824 484.387H688.608V1288.68H560.824V484.387zM831.426 176.201C831.426 118.082 878.541 70.9668 936.66 70.9668H1981.48C2039.6 70.9668 2086.72 118.082 2086.72 176.201V2273.37C2086.72 2331.48 2039.6 2378.6 1981.48 2378.6H936.66C878.541 2378.6 831.426 2331.48 831.426 2273.37V176.201z"></path><path fill="#3E3D3D" fill-rule="evenodd" d="M823.91 176.201C823.91 113.93 874.39 63.4502 936.66 63.4502H1981.48C2043.76 63.4502 2094.24 113.93 2094.24 176.201V2273.37C2094.24 2335.64 2043.76 2386.12 1981.48 2386.12H936.66C874.39 2386.12 823.91 2335.64 823.91 2273.37V176.201ZM936.66 78.4836C882.693 78.4836 838.943 122.233 838.943 176.201V2273.37C838.943 2327.33 882.693 2371.08 936.66 2371.08H1981.48C2035.45 2371.08 2079.2 2327.33 2079.2 2273.37V176.201C2079.2 122.233 2035.45 78.4836 1981.48 78.4836H936.66Z" clip-rule="evenodd"></path><path fill="#fff" d="M876.527 191.235C876.527 149.721 910.18 116.067 951.694 116.067H1966.45C2007.96 116.067 2041.62 149.721 2041.62 191.235V2205.72C2041.62 2247.23 2007.96 2280.88 1966.45 2280.88H951.694C910.18 2280.88 876.527 2247.23 876.527 2205.72V191.235Z"></path><path fill="#F1F1F1" d="M1207.26 116.067H1733.43L1715.96 164.116C1708.4 184.909 1688.64 198.751 1666.51 198.751H1274.18C1252.06 198.751 1232.3 184.909 1224.73 164.116L1207.26 116.067Z"></path><path fill="#F1F1F1" fill-rule="evenodd" d="M1846.18 386.669H1086.99V371.636H1846.18V386.669ZM1432.76 559.554H1086.99V544.52H1432.76V559.554Z" clip-rule="evenodd"></path><path fill="#F1F1F1" d="M1086.99 1190.96H1440.28V1506.66H1086.99V1190.96zM1086.99 935.39H1440.28V1018.07H1086.99V935.39zM1086.99 724.922H1440.28V807.606H1086.99V724.922z"></path><path fill="#F15846" d="M1109.54 1807.33C1109.54 1769.97 1139.83 1739.68 1177.2 1739.68H1740.95C1778.31 1739.68 1808.6 1769.97 1808.6 1807.33V1995.25C1808.6 2032.61 1778.31 2062.9 1740.95 2062.9H1177.2C1139.83 2062.9 1109.54 2032.61 1109.54 1995.25V1807.33Z"></path><path fill="#fff" d="M1282.43 567.071C1282.43 546.314 1299.26 529.487 1320.01 529.487H2342.29C2363.04 529.487 2379.87 546.314 2379.87 567.071V1544.24C2379.87 1565 2363.04 1581.83 2342.29 1581.83H1320.01C1299.26 1581.83 1282.43 1565 1282.43 1544.24V567.071Z"></path><path fill="#3E3D3D" fill-rule="evenodd" d="M1274.91 567.07C1274.91 542.162 1295.1 521.97 1320.01 521.97H2342.29C2367.2 521.97 2387.39 542.162 2387.39 567.07V1544.24C2387.39 1569.15 2367.2 1589.34 2342.29 1589.34H1320.01C1295.1 1589.34 1274.91 1569.15 1274.91 1544.24V567.07ZM1320.01 537.003C1303.41 537.003 1289.95 550.465 1289.95 567.07V1544.24C1289.95 1560.85 1303.41 1574.31 1320.01 1574.31H2342.29C2358.89 1574.31 2372.35 1560.85 2372.35 1544.24V567.07C2372.35 550.465 2358.89 537.003 2342.29 537.003H1320.01Z" clip-rule="evenodd"></path><path fill="#F15846" d="M2154.37 1021.83C2154.37 1202.42 2007.98 1348.81 1827.39 1348.81C1646.81 1348.81 1500.41 1202.42 1500.41 1021.83C1500.41 841.247 1646.81 694.854 1827.39 694.854C2007.98 694.854 2154.37 841.247 2154.37 1021.83Z"></path><path fill="#F1F1F1" d="M2710.61 1893.77C2710.61 2007.93 2618.06 2100.48 2503.9 2100.48C2389.73 2100.48 2297.19 2007.93 2297.19 1893.77C2297.19 1779.61 2389.73 1687.06 2503.9 1687.06C2618.06 1687.06 2710.61 1779.61 2710.61 1893.77Z"></path><path fill="#F1F1F1" fill-rule="evenodd" d="M846.46 2521.42H496.932V2506.38H846.46V2521.42zM1248.6 2694.3H496.932V2679.27H1248.6V2694.3zM2430.01 206.268H2297.19V191.234H2430.01V206.268zM2582.82 379.152H2297.19V364.119H2582.82V379.152z" clip-rule="evenodd"></path><path fill="#3E3D3D" fill-rule="evenodd" d="M-2.92969 2874.7C-2.92969 2870.55 0.435663 2867.19 4.58703 2867.19H2992.48C2996.63 2867.19 3000 2870.55 3000 2874.7C3000 2878.86 2996.63 2882.22 2992.48 2882.22H4.58703C0.435663 2882.22 -2.92969 2878.86 -2.92969 2874.7Z" clip-rule="evenodd"></path><path fill="#F1F1F1" fill-rule="evenodd" d="M2560.27 1495.38V615.929H2575.31V1495.38H2560.27zM2664.34 1859.75L2424.2 2008.71 2342.69 1881.67 2386.98 1853.26 2440.5 1936.68 2636.61 1815.04 2664.34 1859.75z" clip-rule="evenodd"></path><path fill="#fff" fill-rule="evenodd" d="M1831.15 796.33C1845.68 796.33 1857.46 808.109 1857.46 822.639V841.201C1911.72 842.937 1955.18 887.471 1955.18 942.154H1902.56C1902.56 915.43 1880.89 893.766 1854.17 893.766H1813.11C1783.64 893.766 1759.74 917.66 1759.74 947.134C1759.74 976.609 1783.64 1000.5 1813.11 1000.5H1854.17C1909.95 1000.5 1955.18 1045.72 1955.18 1101.51C1955.18 1156.19 1911.72 1200.73 1857.46 1202.46V1221.02C1857.46 1235.55 1845.68 1247.33 1831.15 1247.33C1816.62 1247.33 1804.84 1235.55 1804.84 1221.02V1202.51H1798.17C1747.89 1202.51 1707.12 1161.75 1707.12 1111.47H1759.74C1759.74 1132.69 1776.95 1149.9 1798.17 1149.9H1854.17C1880.89 1149.9 1902.56 1128.23 1902.56 1101.51C1902.56 1074.78 1880.89 1053.12 1854.17 1053.12H1813.11C1754.58 1053.12 1707.12 1005.67 1707.12 947.134C1707.12 891.382 1750.17 845.685 1804.84 841.466V822.639C1804.84 808.109 1816.62 796.33 1831.15 796.33Z" clip-rule="evenodd"></path><path fill="#EFCB96" d="M1749.48 2667.17L1414.83 2605.99C1368.31 2597.48 1322.76 2625.06 1308.74 2670.24C1294.95 2714.69 1315.94 2762.54 1358.18 2782.1C1418.03 2809.8 1490.86 2842.89 1563.4 2874.7L2533.84 2874.7C2514.61 2784.82 2495.88 2671.26 2489.28 2581.2C2475.15 2388.33 2324.56 2178.25 2239.34 2108.52C2171.16 2052.73 2114.03 2084.06 2093.99 2106.7C2050.91 2065.4 1989.6 2094.31 1964.33 2113.93C1894.48 2090.02 1841.47 2145.61 1823.69 2176.4L1646.8 1889.35C1624.43 1853.05 1578.66 1838.87 1539.69 1856.19C1498.8 1874.35 1478.93 1921.04 1494.18 1963.09L1749.48 2667.17Z"></path><path fill="#fff" fill-rule="evenodd" d="M688.609 1626.93C701.063 1626.93 711.159 1637.02 711.159 1649.48V1665.04C757.116 1666.77 793.843 1704.57 793.843 1750.95H748.742C748.742 1728.38 730.443 1710.08 707.87 1710.08H673.575C648.667 1710.08 628.475 1730.27 628.475 1755.18C628.475 1780.09 648.667 1800.28 673.575 1800.28H707.87C755.351 1800.28 793.843 1838.77 793.843 1886.25C793.843 1932.63 757.116 1970.44 711.159 1972.17V1987.73C711.159 2000.18 701.063 2010.28 688.609 2010.28C676.154 2010.28 666.058 2000.18 666.058 1987.73V1972.23H660.891C618.08 1972.23 583.375 1937.52 583.375 1894.71H628.475C628.475 1912.61 642.988 1927.13 660.891 1927.13H707.87C730.443 1927.13 748.742 1908.83 748.742 1886.25C748.742 1863.68 730.443 1845.38 707.87 1845.38H673.575C623.759 1845.38 583.375 1805 583.375 1755.18C583.375 1707.9 619.759 1669.11 666.058 1665.29V1649.48C666.058 1637.02 676.154 1626.93 688.609 1626.93Z" clip-rule="evenodd"></path></g><defs><clipPath id="clip0_101_36102"><rect width="3000" height="3000" fill="#fff"></rect></clipPath></defs></svg>