<?xml version="1.0" encoding="UTF-8" standalone="no"?>
<!-- Created with Inkscape (http://www.inkscape.org/) -->

<svg
   version="1.1"
   id="svg233"
   width="880"
   height="880"
   viewBox="0 0 880 880"
   sodipodi:docname="beagle-dog-publicdomain-vector.svg"
   inkscape:version="1.2 (dc2aedaf03, 2022-05-15)"
   xmlns:inkscape="http://www.inkscape.org/namespaces/inkscape"
   xmlns:sodipodi="http://sodipodi.sourceforge.net/DTD/sodipodi-0.dtd"
   xmlns="http://www.w3.org/2000/svg"
   xmlns:svg="http://www.w3.org/2000/svg">
  <defs
     id="defs237">
    <clipPath
       clipPathUnits="userSpaceOnUse"
       id="clipPath249">
      <path
         d="M 0,660 H 660 V 0 H 0 Z"
         id="path247" />
    </clipPath>
  </defs>
  <sodipodi:namedview
     id="namedview235"
     pagecolor="#ffffff"
     bordercolor="#000000"
     borderopacity="0.25"
     inkscape:showpageshadow="2"
     inkscape:pageopacity="0.0"
     inkscape:pagecheckerboard="0"
     inkscape:deskcolor="#d1d1d1"
     showgrid="false"
     inkscape:zoom="0.95113636"
     inkscape:cx="440.52569"
     inkscape:cy="440.52569"
     inkscape:window-width="1920"
     inkscape:window-height="1017"
     inkscape:window-x="-8"
     inkscape:window-y="-8"
     inkscape:window-maximized="1"
     inkscape:current-layer="g241">
    <inkscape:page
       x="0"
       y="0"
       id="page239"
       width="880"
       height="880" />
  </sodipodi:namedview>
  <g
     id="g241"
     inkscape:groupmode="layer"
     inkscape:label="Page 1"
     transform="matrix(1.3333333,0,0,-1.3333333,0,880)">
    <g
       id="g243">
      <g
         id="g245"
         clip-path="url(#clipPath249)">
        <g
           id="g251"
           transform="translate(326.6777,104.5371)">
          <path
             d="M 0,0 C 138.676,0 251.781,22.453 251.781,49.978 251.781,77.505 138.676,99.955 0,99.955 -138.676,99.955 -251.781,77.505 -251.781,49.978 -251.781,22.453 -138.676,0 0,0"
             style="fill:#5f992c;fill-opacity:1;fill-rule:evenodd;stroke:none"
             id="path253" />
        </g>
        <g
           id="g255"
           transform="translate(403.8145,139.1729)">
          <path
             d="M 0,0 C 70.15,5.729 136.646,15.198 169.961,58.6 118.212,34.857 61.998,30.886 4.414,32.988 2.942,21.993 1.47,10.995 0,0"
             style="fill:#3d2309;fill-opacity:1;fill-rule:evenodd;stroke:none"
             id="path257" />
        </g>
        <g
           id="g259"
           transform="translate(535.5088,166.5459)">
          <path
             d="M 0,0 C 15.705,8.146 30.824,19.921 41.233,33.482 26.501,26.724 9.765,20.141 -5.585,16.114 -4.34,10.359 -2.442,4.942 0,0"
             style="fill:#ebd9c8;fill-opacity:1;fill-rule:evenodd;stroke:none"
             id="path261" />
        </g>
        <g
           id="g263"
           transform="translate(227.709,317.7158)">
          <path
             d="m 0,0 3.758,-178.573 h -59.033 l -1.434,19.953 c -0.588,8.193 5.379,14.7 13.565,14.798 l 11.901,0.138 -17.178,186.164 z"
             style="fill:#bda691;fill-opacity:1;fill-rule:evenodd;stroke:none"
             id="path265" />
        </g>
        <g
           id="g267"
           transform="translate(386.084,238.6885)">
          <path
             d="m 0,0 c -68.582,50.444 -108.85,16.408 -85.789,-71.44 h -34.04 c -17.826,0 -19.593,-12.025 -22.811,-28.113 48.981,0.013 105.143,0.025 154.123,0.037 -26.019,4.11 -10.596,46.16 -32.917,53.163 C -40.441,-40.391 -30.448,-0.047 0,0"
             style="fill:#bda691;fill-opacity:1;fill-rule:evenodd;stroke:none"
             id="path269" />
        </g>
        <g
           id="g271"
           transform="translate(177.416,434.1719)">
          <path
             d="m 0,0 c 2.007,33.916 0.72,98.993 34.554,129.164 33.832,30.169 112.284,17.48 93.372,-77.052 -7.172,-35.842 -15.333,-59.851 10.904,-89.965 1.6,-1.538 3.198,-3.075 4.797,-4.61 35.406,-30.959 53.553,-31.734 89.577,-53.956 48.212,-31.72 57.246,-77.901 44.431,-132.229 -6.741,-26.373 -24.478,-69.745 -58.214,-66.306 -27.694,5.152 -34.633,37.921 -55.068,60.339 -35.653,37.706 -60.966,43.046 -106.162,63.04 C 15.432,-152.659 0.972,-89.578 -0.698,-47.146 -1.322,-31.312 -0.936,-15.8 0,0"
             style="fill:#ebd9c8;fill-opacity:1;fill-rule:evenodd;stroke:none"
             id="path273" />
        </g>
        <g
           id="g275"
           transform="translate(177.416,434.1719)">
          <path
             d="M 0,0 C 0.297,5.016 0.52,10.717 0.797,16.881 L 3.089,16.71 C 11.965,15.977 48.613,11.535 35.957,-5.272 25.9,-17.221 22.723,-14.656 27.747,-31.695 33.511,-51.236 16.52,-55.984 0.919,-58.41 0.63,-58.455 0.333,-58.498 0.032,-58.541 c -0.346,3.923 -0.586,7.736 -0.73,11.395 C -1.322,-31.312 -0.936,-15.8 0,0 m 122.396,24.083 c -3.505,-21.912 -2.369,-40.356 16.434,-61.936 1.6,-1.538 3.198,-3.075 4.797,-4.61 35.406,-30.959 53.553,-31.734 89.577,-53.956 48.212,-31.72 57.246,-77.901 44.431,-132.229 -6.741,-26.373 -24.478,-69.745 -58.214,-66.306 -26.365,4.906 -33.919,34.839 -52.213,57.041 -2.703,8.421 -6.335,17.143 -11.128,26.184 -19.4,36.597 -32.855,32.097 -57.596,55.128 -16.516,16.834 -43.372,48.836 -24.63,72.128 20.368,25.312 39.111,12.8 12.98,54.98 -17.279,27.891 -21.336,62.102 22.247,56.807 4.88,-0.948 9.279,-2.041 13.315,-3.231"
             style="fill:#663c12;fill-opacity:1;fill-rule:evenodd;stroke:none"
             id="path277" />
        </g>
        <g
           id="g279"
           transform="translate(392.3311,238.6885)">
          <path
             d="m 0,0 c -68.582,50.444 -74.178,16.408 -51.12,-71.44 h -34.037 c -17.826,0 -19.595,-12.025 -22.811,-28.113 48.981,0.013 70.471,0.025 119.451,0.037 -26.019,4.11 -10.597,46.16 -32.919,53.163 C -40.443,-40.391 -30.448,-0.047 0,0"
             style="fill:#ebd9c8;fill-opacity:1;fill-rule:evenodd;stroke:none"
             id="path281" />
        </g>
        <g
           id="g283"
           transform="translate(280.9756,258.3691)">
          <path
             d="m 0,0 -19.991,-119.226 h -59.036 l 0.721,19.953 c 0.297,8.193 6.965,14.7 15.164,14.798 l 11.915,0.138 14.68,93.081 z"
             style="fill:#ebd9c8;fill-opacity:1;fill-rule:evenodd;stroke:none"
             id="path285" />
        </g>
        <g
           id="g287"
           transform="translate(307.6416,554.1938)">
          <path
             d="M 0,0 C 17.645,-83.086 -96.559,-152.057 -125.248,-46.445 -150.323,45.86 -24.61,73.009 0,0"
             style="fill:#663c12;fill-opacity:1;fill-rule:evenodd;stroke:none"
             id="path289" />
        </g>
        <g
           id="g291"
           transform="translate(283.8916,474.6162)">
          <path
             d="m 0,0 c -32.018,-31.538 -83.903,-33.745 -102.026,32.974 -0.113,0.412 -0.2,0.811 -0.306,1.219 0.468,6.852 3.945,12.682 13.29,16.314 45.264,17.592 49.661,26.449 56.786,71.199 2.42,0.152 4.87,-0.46 7.158,-0.696 C -25.152,98.461 -38.149,67.199 -18.867,51.479 -7.361,42.103 -1.718,38.686 4.669,24.409 6.14,17.475 3.361,8.522 0,0"
             style="fill:#d4b99f;fill-opacity:1;fill-rule:evenodd;stroke:none"
             id="path293" />
        </g>
        <g
           id="g295"
           transform="translate(241.1309,453.499)">
          <path
             d="M 0,0 C -9.351,-0.73 -18.656,1.05 -27.197,5.879 -19.844,7.68 -13.928,11.825 -9.64,18.627 -8.342,10.685 -4.781,4.792 0,0"
             style="fill:#b09073;fill-opacity:1;fill-rule:evenodd;stroke:none"
             id="path297" />
        </g>
        <g
           id="g299"
           transform="translate(231.4912,472.126)">
          <path
             d="m 0,0 c -10.371,1.645 -26.149,19.325 -17.952,25.891 11.051,8.854 33.89,4.98 41.958,-6.657 C 29.849,10.809 10.127,-1.607 0,0"
             style="fill:#1a1a1a;fill-opacity:1;fill-rule:evenodd;stroke:none"
             id="path301" />
        </g>
        <g
           id="g303"
           transform="translate(205.1553,558.4634)">
          <path
             d="m 0,0 c 4.242,-0.853 6.655,-6.644 5.391,-12.936 -1.265,-6.29 -5.729,-10.7 -9.969,-9.847 -4.241,0.852 -6.655,6.644 -5.393,12.934 C -8.706,-3.557 -4.242,0.852 0,0"
             style="fill:#1a1a1a;fill-opacity:1;fill-rule:evenodd;stroke:none"
             id="path305" />
        </g>
        <g
           id="g307"
           transform="translate(206.7109,544.1685)">
          <path
             d="m 0,0 c 0.687,-0.139 1.086,-1.053 0.887,-2.044 -0.2,-0.989 -0.919,-1.679 -1.607,-1.54 -0.691,0.138 -1.088,1.052 -0.89,2.043 C -1.411,-0.552 -0.691,0.138 0,0 M 0.181,9.685 C 1.558,9.407 2.357,7.592 1.962,5.631 1.569,3.669 0.13,2.304 -1.247,2.581 c -1.378,0.277 -2.176,2.091 -1.781,4.053 0.392,1.962 1.83,3.327 3.209,3.051"
             style="fill:#ffffff;fill-opacity:1;fill-rule:evenodd;stroke:none"
             id="path309" />
        </g>
        <g
           id="g311"
           transform="translate(207.707,574.4165)">
          <path
             d="M 0,0 C 21.393,-2.115 13.597,-15.657 -0.968,-8.415 -8.382,-4.726 -8.65,-0.538 0,0"
             style="fill:#361e07;fill-opacity:1;fill-rule:evenodd;stroke:none"
             id="path313" />
        </g>
        <g
           id="g315"
           transform="translate(288.0439,543.0166)">
          <path
             d="m 0,0 c 4.326,-0.142 7.661,-5.455 7.449,-11.869 -0.209,-6.414 -3.883,-11.499 -8.207,-11.357 -4.325,0.141 -7.66,5.455 -7.451,11.87 C -7.997,-4.943 -4.323,0.141 0,0"
             style="fill:#1a1a1a;fill-opacity:1;fill-rule:evenodd;stroke:none"
             id="path317" />
        </g>
        <g
           id="g319"
           transform="translate(291.9346,529.1743)">
          <path
             d="M 0,0 C 0.704,-0.023 1.247,-0.859 1.214,-1.869 1.18,-2.877 0.584,-3.677 -0.118,-3.654 -0.821,-3.631 -1.364,-2.794 -1.332,-1.786 -1.3,-0.776 -0.701,0.022 0,0 m -1.417,9.582 c 1.405,-0.047 2.49,-1.704 2.426,-3.704 -0.066,-2 -1.257,-3.585 -2.662,-3.538 -1.406,0.045 -2.492,1.704 -2.426,3.704 0.064,1.999 1.257,3.583 2.662,3.538"
             style="fill:#ffffff;fill-opacity:1;fill-rule:evenodd;stroke:none"
             id="path321" />
        </g>
        <g
           id="g323"
           transform="translate(287.9326,559.1729)">
          <path
             d="M 0,0 C 21.447,1.441 15.989,-13.202 0.433,-8.46 -7.489,-6.044 -8.445,-1.957 0,0"
             style="fill:#361e07;fill-opacity:1;fill-rule:evenodd;stroke:none"
             id="path325" />
        </g>
        <g
           id="g327"
           transform="translate(222.5156,591.9546)">
          <path
             d="M 0,0 C -2.902,8.967 -17.309,16.689 -22.786,10.476 -38.153,-6.962 -64.217,-15.378 -74.426,-27.774 -97.374,-55.637 -53.8,-158.229 -33.82,-128.166 -19.104,-106.025 -45.851,-28.439 0,0"
             style="fill:#8f6235;fill-opacity:1;fill-rule:evenodd;stroke:none"
             id="path329" />
        </g>
        <g
           id="g331"
           transform="translate(285.3213,584.9136)">
          <path
             d="M 0,0 C 4.614,8.217 20.265,12.943 24.407,5.771 36.028,-14.357 59.917,-27.756 67.478,-41.922 84.472,-73.768 21.501,-165.737 7.848,-132.321 -2.206,-107.71 39.333,-36.931 0,0"
             style="fill:#8f6235;fill-opacity:1;fill-rule:evenodd;stroke:none"
             id="path333" />
        </g>
        <g
           id="g335"
           transform="translate(298.2568,439.749)">
          <path
             d="m 0,0 c 0.229,-14.466 4.687,-28.164 17.989,-43.431 1.6,-1.537 3.198,-3.074 4.797,-4.609 35.406,-30.959 53.553,-31.734 89.577,-53.956 44.47,-29.257 55.608,-70.818 47.012,-119.73 -2.215,2.046 -4.458,5.78 -6.625,11.474 -9.971,26.198 -7.72,41.612 -38.38,55.188 -19.507,8.638 -34.667,12.584 -54.492,23.813 -34.357,19.463 -28.47,25.727 -37.694,59.247 -6.415,21.318 -36.335,38.838 -33.222,62.349 C -9.691,-3.75 -5.497,-0.954 0,0"
             style="fill:#45280b;fill-opacity:1;fill-rule:evenodd;stroke:none"
             id="path337" />
        </g>
        <g
           id="g339"
           transform="translate(298.2549,439.749)">
          <path
             d="m 0,0 c 0.23,-14.466 4.689,-28.164 17.991,-43.431 1.6,-1.537 3.198,-3.074 4.797,-4.609 35.406,-30.959 53.553,-31.734 89.577,-53.956 44.47,-29.257 55.608,-70.818 47.012,-119.73 -2.215,2.046 -4.458,5.78 -6.625,11.474 -9.971,26.198 -7.72,41.612 -38.38,55.188 -19.507,8.638 -34.667,12.584 -54.492,23.813 -34.357,19.463 -28.47,25.727 -37.694,59.247 -6.415,21.318 -36.335,38.838 -33.222,62.349 C -9.689,-3.751 -5.495,-0.954 0,0"
             style="fill:#45280b;fill-opacity:1;fill-rule:evenodd;stroke:none"
             id="path341" />
        </g>
      </g>
    </g>
  </g>
</svg>
