<svg xmlns="http://www.w3.org/2000/svg" width="3000" height="3000" fill="none" viewBox="0 0 3000 3000" id="online-shopping-app"><g clip-path="url(#clip0_101_35885)"><path fill="#F1F1F1" d="M448.073 587.817C448.073 554.606 474.996 527.684 508.207 527.684H974.244V1211.71H508.207C474.996 1211.71 448.073 1184.78 448.073 1151.57V587.817Z"></path><path fill="#F1F1F1" fill-rule="evenodd" d="M549.549 685.535H623.046L628.475 723.118L664.338 995.681C665.323 1003.16 671.699 1008.75 679.243 1008.75H974.244V723.118H699.884L690.488 678.018L683.585 644.885C682.133 637.913 675.989 632.917 668.868 632.917H549.549C541.247 632.917 534.516 639.648 534.516 647.951V670.501C534.516 678.804 541.247 685.535 549.549 685.535ZM737.467 1136.54C764.451 1136.54 786.326 1114.66 786.326 1087.68C786.326 1060.7 764.451 1038.82 737.467 1038.82C710.483 1038.82 688.609 1060.7 688.609 1087.68C688.609 1114.66 710.483 1136.54 737.467 1136.54Z" clip-rule="evenodd"></path><path fill="#F1F1F1" d="M2567.79 2309.15C2540.73 2303.13 2521.44 2321.67 2515.17 2331.7L2210.74 2790.22H2413.7C2412.44 2776.44 2427.98 2737.6 2500.14 2692.5C2590.34 2636.12 2590.34 2606.06 2582.82 2553.44C2575.31 2500.82 2567.79 2451.96 2590.34 2406.86C2612.89 2361.76 2601.61 2316.66 2567.79 2309.15Z"></path><path fill="#F15846" d="M2282.15 2294.11C2255.09 2309.15 2235.8 2335.46 2229.54 2346.73L2199.47 2662.43L2109.27 2786.46H2263.36C2436.25 2756.39 2413.7 2673.71 2440 2591.02C2466.31 2508.34 2560.27 2538.41 2526.45 2388.07C2492.62 2237.74 2545.24 2192.64 2560.27 2158.81C2575.31 2124.99 2657.99 2064.85 2627.92 1989.69C2597.86 1914.52 2533.96 1948.34 2507.65 1970.89C2481.35 1993.44 2485.1 2034.79 2406.18 2057.34C2327.25 2079.89 2327.25 2162.57 2327.25 2185.12C2327.25 2207.67 2315.98 2275.32 2282.15 2294.11Z"></path><path fill="#3E3D3D" fill-rule="evenodd" d="M2207.28 2780.63C2275.07 2543.36 2410.66 2219.3 2550.35 2019.21L2562.68 2027.81C2424.25 2226.11 2289.24 2548.48 2221.73 2784.76L2207.28 2780.63Z" clip-rule="evenodd"></path><path fill="#F1F1F1" fill-rule="evenodd" d="M2271.58 47.1706C2279.3 34.3667 2295.94 30.2445 2308.74 37.9633L2384.7 83.7542C2397.5 91.4731 2401.62 108.11 2393.91 120.914C2387.58 131.402 2389.2 144.743 2397 154.19C2418.84 180.665 2435.25 210.752 2445.81 242.685C2449.66 254.327 2460.11 262.805 2472.37 263.037C2487.34 263.32 2499.25 275.689 2498.97 290.663L2497.29 379.276C2497.01 394.232 2484.65 406.128 2469.7 405.845C2457.46 405.613 2446.72 413.673 2442.42 425.136C2436.57 440.749 2429.21 456.049 2420.29 470.845C2411.37 485.64 2401.28 499.293 2390.2 511.756C2382.07 520.906 2379.96 534.169 2385.88 544.884C2393.11 557.978 2388.36 574.457 2375.27 581.69L2297.69 624.544C2284.58 631.786 2268.08 627.029 2260.84 613.919C2254.91 603.186 2242.53 597.907 2230.44 599.938C2197.27 605.511 2163 605.04 2129.39 598.087C2117.4 595.606 2104.85 600.402 2098.52 610.891C2090.8 623.695 2074.17 627.817 2061.36 620.098L1985.41 574.307C1972.6 566.588 1968.48 549.951 1976.2 537.148C1982.52 526.659 1980.9 513.319 1973.11 503.872C1951.27 477.397 1934.85 447.309 1924.29 415.376C1920.44 403.734 1910 395.256 1897.74 395.024C1882.76 394.741 1870.85 382.372 1871.14 367.397L1872.81 278.785C1873.1 263.829 1885.45 251.933 1900.41 252.216C1912.65 252.448 1923.39 244.388 1927.68 232.925C1933.53 217.312 1940.89 202.012 1949.81 187.216C1958.73 172.421 1968.83 158.768 1979.9 146.305C1988.03 137.155 1990.15 123.892 1984.23 113.177C1976.99 100.083 1981.74 83.6044 1994.84 76.3712L2072.42 33.5168C2085.53 26.2748 2102.03 31.0318 2109.27 44.1418C2115.2 54.875 2127.57 60.1545 2139.66 58.1228C2172.83 52.5501 2207.1 53.0211 2240.71 59.974C2252.71 62.4551 2265.26 57.659 2271.58 47.1706ZM2318.08 409.229C2273.79 482.701 2178.32 506.356 2104.85 462.063C2031.38 417.77 2007.73 322.303 2052.02 248.831C2096.31 175.359 2191.78 151.705 2265.25 195.998C2338.72 240.291 2362.38 335.758 2318.08 409.229Z" clip-rule="evenodd"></path><path fill="#F1F1F1" d="M974.244 407.416C974.244 349.297 1021.36 302.182 1079.48 302.182H2124.3C2182.42 302.182 2229.54 349.297 2229.54 407.416V2684.98C2229.54 2743.1 2182.42 2790.22 2124.3 2790.22H1079.48C1021.36 2790.22 974.244 2743.1 974.244 2684.98V407.416Z"></path><path fill="#3E3D3D" fill-rule="evenodd" d="M966.727 407.416C966.727 345.145 1017.21 294.665 1079.48 294.665H2124.3C2186.57 294.665 2237.05 345.145 2237.05 407.416V2684.98C2237.05 2747.25 2186.57 2797.73 2124.3 2797.73H1079.48C1017.21 2797.73 966.727 2747.25 966.727 2684.98V407.416ZM1079.48 309.698C1025.51 309.698 981.761 353.448 981.761 407.416V2684.98C981.761 2738.95 1025.51 2782.7 1079.48 2782.7H2124.3C2178.27 2782.7 2222.02 2738.95 2222.02 2684.98V407.416C2222.02 353.448 2178.27 309.698 2124.3 309.698H1079.48Z" clip-rule="evenodd"></path><path fill="#fff" d="M1019.34 422.449C1019.34 380.936 1053 347.282 1094.51 347.282H2109.27C2150.78 347.282 2184.44 380.936 2184.44 422.449V2609.82C2184.44 2651.33 2150.78 2684.98 2109.27 2684.98H1094.51C1053 2684.98 1019.34 2651.33 1019.34 2609.82V422.449Z"></path><path fill="#F1F1F1" d="M1139.61 790.768C1139.61 761.709 1163.17 738.151 1192.23 738.151H1365.11V1760.43H1192.23C1163.17 1760.43 1139.61 1736.87 1139.61 1707.81V790.768Z"></path><path fill="#3E3D3D" fill-rule="evenodd" d="M-2.92969 2944.31C-2.92969 2940.16.435663 2936.79 4.58703 2936.79H2992.48C2996.63 2936.79 3000 2940.16 3000 2944.31 3000 2948.46 2996.63 2951.83 2992.48 2951.83H4.58703C.435663 2951.83-2.92969 2948.46-2.92969 2944.31zM808.876 2790.22C808.876 2786.06 812.241 2782.7 816.393 2782.7L2597.86 2782.7C2602.01 2782.7 2605.37 2786.06 2605.37 2790.22 2605.37 2794.37 2602.01 2797.73 2597.86 2797.73L816.393 2797.73C812.241 2797.73 808.876 2794.37 808.876 2790.22z" clip-rule="evenodd"></path><path fill="#3E3D3D" d="M974.244 2778.94V2944.31H429.282L448.074 2778.94H974.244Z"></path><path fill="#EFCB96" d="M620.958 1839.35H756.259V1974.65H620.958V1839.35Z"></path><path fill="#EFCB96" d="M681.093 1873.18C870.514 1873.18 860.241 1697.79 831.427 1610.09L696.126 1640.16C612.189 1717.83 491.671 1873.18 681.093 1873.18Z"></path><path fill="#3E3D3D" d="M632.233 1880.69C707.401 1880.69 707.401 1828.08 707.401 1828.08C707.401 1828.08 709.656 1807.03 703.642 1798.01C696.125 1786.73 669.817 1790.49 669.817 1756.67C669.817 1734.12 677.334 1719.08 703.642 1719.08C729.951 1719.08 722.995 1761.22 741.226 1756.67C756.259 1752.91 756.259 1741.63 771.293 1700.29C783.319 1667.22 801.36 1653.94 808.876 1651.43C884.044 1636.4 865.252 1542.44 853.977 1519.89C842.702 1497.34 801.36 1493.58 771.293 1527.41C741.226 1561.23 726.192 1564.99 651.025 1572.51C590.891 1578.52 545.791 1628.88 545.791 1700.29V1745.39C545.791 1798.01 549.549 1880.69 632.233 1880.69Z"></path><path fill="#F1F1F1" d="M1432.76 704.327C1432.76 675.267 1456.32 651.709 1485.38 651.709H2462.55C2491.61 651.709 2515.17 675.267 2515.17 704.327V1914.52C2515.17 1943.58 2491.61 1967.14 2462.55 1967.14H1485.38C1456.32 1967.14 1432.76 1943.58 1432.76 1914.52V704.327Z"></path><path fill="#fff" d="M1365.11 640.434C1365.11 611.375 1388.67 587.817 1417.73 587.817H2394.9C2423.96 587.817 2447.52 611.375 2447.52 640.434V1850.63C2447.52 1879.69 2423.96 1903.24 2394.9 1903.24H1417.73C1388.67 1903.24 1365.11 1879.69 1365.11 1850.63V640.434Z"></path><path fill="#3E3D3D" fill-rule="evenodd" d="M1357.6 640.435C1357.6 607.224 1384.52 580.301 1417.73 580.301H2394.9C2428.12 580.301 2455.04 607.224 2455.04 640.435V1850.63C2455.04 1883.84 2428.12 1910.76 2394.9 1910.76H1417.73C1384.52 1910.76 1357.6 1883.84 1357.6 1850.63V640.435zM1417.73 595.334C1392.82 595.334 1372.63 615.526 1372.63 640.435V1850.63C1372.63 1875.53 1392.82 1895.73 1417.73 1895.73H2394.9C2419.81 1895.73 2440 1875.53 2440 1850.63V640.435C2440 615.526 2419.81 595.334 2394.9 595.334H1417.73zM2004.03 2241.5H1725.92V2226.46H2004.03V2241.5zM2004.03 2346.73H1725.92V2331.7H2004.03V2346.73zM2004.03 2455.72H1725.92V2440.69H2004.03V2455.72zM2004.03 2575.99H1184.71V2560.96H2004.03V2575.99z" clip-rule="evenodd"></path><path fill="#EFCB96" d="M1218.77 1933.72L1214.78 1941.75L1286.55 1985.93C1289.21 1977.9 1300.11 1959.42 1322.44 1949.79C1350.35 1937.74 1366.3 1897.58 1382.25 1873.49C1395.01 1854.21 1382.25 1838.68 1374.28 1833.33C1374.28 1820.48 1360.98 1811.91 1354.34 1809.23C1354.34 1789.96 1335.73 1787.82 1326.43 1789.15L1363.88 1732.57C1369.72 1723.75 1367.7 1711.9 1359.25 1705.52C1350.08 1698.6 1336.98 1700.78 1330.56 1710.31L1266.62 1805.22L1248.21 1802.9C1240.55 1801.94 1233.4 1806.92 1231.77 1814.47C1227.39 1834.75 1221.31 1865.07 1218.77 1885.53C1215.58 1911.23 1217.44 1928.37 1218.77 1933.72Z"></path><path fill="#F1F1F1" d="M1628.2 779.494C1628.2 827.234 1589.5 865.936 1541.76 865.936C1494.02 865.936 1455.31 827.234 1455.31 779.494C1455.31 731.753 1494.02 693.051 1541.76 693.051C1589.5 693.051 1628.2 731.753 1628.2 779.494Z"></path><path fill="#3E3D3D" d="M2045.38 862.178C1946.16 850.151 1851.19 857.167 1816.12 862.178L1797.32 956.137L1846.18 1005L2071.68 941.103L2045.38 862.178Z"></path><path fill="#F15846" d="M1642.41 935.317L1816.12 862.178C1823.63 892.245 1858.21 952.378 1936.38 952.378C2014.56 952.378 2041.62 892.245 2045.38 862.178L2264.08 936.104C2293.96 946.207 2316.4 971.191 2323.24 1001.99L2379.87 1256.81L2229.54 1279.36V1700.29C2229.54 1716.9 2216.07 1730.36 2199.47 1730.36H1692.09C1675.49 1730.36 1662.02 1716.9 1662.02 1700.29V1279.36L1519.21 1256.81L1590.37 994.807C1597.64 968.027 1616.83 946.086 1642.41 935.317Z"></path><path fill="#F1F1F1" d="M1350.08 347.282H1876.25L1857.61 407.856C1850.82 429.934 1830.42 445 1807.32 445H1419.01C1395.91 445 1375.51 429.934 1368.72 407.856L1350.08 347.282Z"></path><path fill="#F15846" fill-rule="evenodd" d="M2582.82 1185.4H2639.2L2710.61 1294.39L2639.2 1403.38H2611.01H2582.82L2654.23 1294.39L2582.82 1185.4Z" clip-rule="evenodd"></path><path fill="#3E3D3D" fill-rule="evenodd" d="M1936.38 989.962C1838.31 989.962 1795.38 928.538 1786.2 897.055L1793.42 894.95C1801.77 923.601 1842.03 982.445 1936.38 982.445C2030.61 982.445 2063.24 923.791 2067.98 895.385L2075.39 896.62C2070.1 928.348 2034.59 989.962 1936.38 989.962ZM1665.78 1174.12V1279.36H1658.27V1174.12H1665.78ZM2233.29 1174.12V1279.36H2225.78V1174.12H2233.29Z" clip-rule="evenodd"></path><path fill="#F15846" d="M974.243 2778.94C1019.34 2769.92 974.243 2527.13 974.243 2305.39L1037.06 2341.28C1074.43 2362.64 1122.06 2348.32 1141.46 2309.9L1301.22 1993.44L1207.26 1933.31L1093.43 2102.33C1088.15 2110.18 1077.02 2111.26 1070.31 2104.59C1025.55 2060.11 949.498 1985.8 914.109 1955.86C875.022 1922.79 801.358 1908.25 771.292 1907C760.016 1915.77 728.446 1933.31 692.366 1933.31C656.286 1933.31 619.704 1915.77 605.924 1907L499.346 1944.18C464.591 1956.3 437.301 1983.68 425.283 2018.47L372.905 2170.09C342.838 2267.8 297.738 2370.03 342.838 2418.14C387.938 2466.25 429.28 2450.71 444.314 2436.93C444.314 2557.2 440.556 2639.88 433.039 2730.08C425.522 2820.28 489.415 2771.42 673.574 2786.46C820.902 2798.48 911.603 2783.95 974.243 2778.94Z"></path><path fill="#3E3D3D" fill-rule="evenodd" d="M784.432 1936.57C698.72 1985.55 623.43 1957.1 596.13 1936.3L600.686 1930.32C626.003 1949.61 698.041 1977.28 780.703 1930.05L784.432 1936.57ZM448.074 2433.17H440.557V2181.36H448.074V2433.17ZM927.525 2268.47L976.383 2302.3L972.105 2308.48L923.246 2274.65L927.525 2268.47ZM604.244 2602.7C711.665 2548.98 808.446 2435.82 843.381 2385.92L849.539 2390.23C814.318 2440.54 716.666 2554.89 607.606 2609.42L604.244 2602.7ZM795.609 2591.59C843.087 2561.92 867.107 2524.93 873.057 2510.65L879.996 2513.54C873.418 2529.33 848.33 2567.51 799.593 2597.97L795.609 2591.59Z" clip-rule="evenodd"></path><path fill="#F15846" d="M1184.71 2241.5C1184.71 2233.19 1191.44 2226.46 1199.75 2226.46H1560.55C1568.85 2226.46 1575.58 2233.19 1575.58 2241.5V2444.45C1575.58 2452.75 1568.85 2459.48 1560.55 2459.48H1199.75C1191.44 2459.48 1184.71 2452.75 1184.71 2444.45V2241.5Z"></path></g><defs><clipPath id="clip0_101_35885"><rect width="3000" height="3000" fill="#fff"></rect></clipPath></defs></svg>